<?xml version="1.0" standalone="no"?>
<!DOCTYPE svg PUBLIC "-//W3C//DTD SVG 1.1//EN" "http://www.w3.org/Graphics/SVG/1.1/DTD/svg11.dtd" >
<svg xmlns="http://www.w3.org/2000/svg">
<metadata>Generated by IcoMoon</metadata>
<defs>
<font id="icomoon" horiz-adv-x="1024">
<font-face units-per-em="1024" ascent="960" descent="-64" />
<missing-glyph horiz-adv-x="1024" />
<glyph unicode="&#x20;" horiz-adv-x="512" d="" />
<glyph unicode="&#xe900;" glyph-name="back" d="M340.413 448.020l454.011-454.042-55.414-55.419-509.435 509.46 509.435 509.42 55.414-55.419-454.011-454.001z" />
<glyph unicode="&#xe901;" glyph-name="check-box" d="M858.787 894.901h-695.621c-54.685 0-99.374-44.713-99.374-99.374v-695.621c0-54.661 44.689-99.374 99.374-99.374h695.62c54.684 0 99.374 44.713 99.374 99.374v695.621c0.001 54.66-44.689 99.374-99.373 99.374zM858.787 99.906h-695.621v695.621h695.62v-695.621z" />
<glyph unicode="&#xe902;" glyph-name="check-box-h" d="M308.451 542.401l-69.533-69.557 223.592-223.592 496.871 496.871-69.533 69.558-427.339-427.315-154.060 154.035zM860.008 100.189h-695.62v695.621h496.872v99.374h-496.872c-54.685 0-99.374-44.713-99.374-99.374v-695.621c0-54.661 44.689-99.374 99.374-99.374h695.62c54.684 0 99.374 44.713 99.374 99.374v397.498h-99.374v-397.498z" />
<glyph unicode="&#xe903;" glyph-name="false" d="M662.857 274.102c-5.911 0-11.799 2.192-16.306 6.708l-301.745 301.694c-8.999 8.999-8.999 23.597 0 32.598s23.597 8.999 32.598 0l301.745-301.694c8.999-8.999 8.999-23.597 0-32.598-4.498-4.498-10.393-6.708-16.306-6.708v0h0.014zM361.112 274.102c-5.911 0-11.799 2.192-16.306 6.708-8.999 8.999-8.999 23.597 0 32.598l301.745 301.694c8.999 8.999 23.597 8.999 32.598 0s8.999-23.597 0-32.598l-301.745-301.694c-4.501-4.498-10.393-6.708-16.306-6.708v0h0.014zM511.998 0.929c-246.499 0-447.096 200.545-447.096 447.085 0 246.499 200.579 447.060 447.096 447.060 246.499 0 447.096-200.573 447.096-447.060 0-246.54-200.579-447.085-447.096-447.085v0zM511.998 848.979c-221.102 0-400.996-179.869-400.996-400.96s179.897-400.996 400.996-400.996c221.102 0 400.996 179.898 400.996 400.996 0 221.102-179.897 400.96-400.996 400.96 0 0 0 0 0 0z" />
<glyph unicode="&#xe904;" glyph-name="heart" d="M935.162 822.392c-56.729 58.511-132.147 90.748-212.36 90.748-75.471 0-147.871-28.884-203.848-81.402l-6.978-6.488-6.979 6.536c-55.978 52.47-128.355 81.354-203.821 81.354-80.213 0-155.616-32.258-212.36-90.749-57.047-58.912-88.47-137.123-88.47-220.36 0-83.259 31.423-161.471 88.47-220.408l360.713-372.064c16.698-17.208 38.885-26.699 62.467-26.699 23.586 0 45.774 9.491 62.472 26.699 0 0 356.738 367.97 360.692 372.064 57.069 58.91 88.491 137.123 88.491 220.408 0.001 83.215-31.444 161.429-88.49 220.361v0zM903.297 414.206l-360.713-372.063c-8.138-8.443-19.024-13.095-30.608-13.095s-22.442 4.631-30.608 13.116l-360.687 372.021c-48.563 50.096-75.306 116.774-75.306 187.825 0 71 26.743 137.725 75.306 187.772 48.28 49.797 112.444 77.217 180.703 77.217 64.095 0 125.635-24.63 173.336-69.306l37.257-34.931 37.284 34.931c47.673 44.698 109.235 69.306 173.331 69.306 68.284 0 132.449-27.445 180.708-77.217 48.563-50.047 75.306-116.773 75.306-187.772-0.001-71.031-26.744-137.707-75.307-187.803v0zM270.429 773.6l-2.491-0.026-0.042-0.048c-70.797-1.368-127.983-59.395-127.983-130.469 0-11.86 9.651-21.511 21.51-21.511 11.86 0 21.516 9.651 21.516 21.532 0 48.238 39.258 87.517 87.512 87.517 11.865 0 21.516 9.651 21.516 21.516-0.001 11.859-9.678 21.488-21.539 21.488v0z" />
<glyph unicode="&#xe905;" glyph-name="like" d="M259.931 451.265c12.777 0 23.051 10.645 23.051 23.748 0 13.101-10.275 23.788-23.051 23.788-0.203 0-0.41-0.163-0.655-0.163l-55.109-0.124c-1.23 0.205-2.54 0.287-3.851 0.287-17.362 0-31.403-14.699-31.403-32.837l-0.33-393.799c0-18.139 14.087-32.346 31.488-32.346 1.677 0 3.355-0.287 4.953 0l53.841-0.041c0.080 0 0.123-0.041 0.208-0.041 0.081 0 0.123 0.041 0.203 0.041h0.655v0.122c11.834 0.492 21.331 10.401 21.331 22.684 0 12.325-9.497 22.233-21.331 22.724v0.327h-44.915l1.268 365.63h43.647zM909.341 485.289c-16.99 28.578-41.719 40.125-71.689 41.394-1.556 0.205-3.116 0.368-4.751 0.368l-181.176 0.614c11.872 35.5 20.020 77.794 20.020 117.55 0 25.754-2.828 50.853-7.984 75.009l-0.41-0.082c-9.373 42.336-45.654 73.946-89.051 73.946-50.528 0-84.225-43.77-84.225-96.466 0-2.948-0.246-5.813 0-8.679-2.621-98.512-80.455-177.698-173.070-188.588v-49.869l-0.693-201.937v-208.814h458.164c17.076-0.041 26.695 4.381 42.172 14.658 14.699 9.786 25.793 23.174 33.080 38.323 1.965 3.031 3.524 6.428 4.505 10.154l67.928 312.935c0.901 3.687 1.188 7.412 0.901 11.056 1.389 19.817-2.866 40.248-13.72 58.427zM880.517 437.22l-73.164-334.225-0.122 0.041c-2.253-5.609-6.061-10.563-11.344-14.044-3.686-2.456-7.739-3.931-11.83-4.504-1.31 0.205-2.663 0-4.053 0l-420.742 0.49-0.165 370.257c78.82 36.605 136.591 72.389 166.354 157.84 0.042-0.041 0.127-0.041 0.165-0.083 2.664 8.311 5.57 18.834 7.696 30.135 4.873 26.531 4.627 52.858 4.627 52.858-4.378 34.475 22.848 48.111 39.141 48.111 22.273-0.778 44.302-30.586 44.302-47.537 0 0 4.953-25.058 4.996-51.999 0.042-33.941-4.133-51.671-4.133-51.671h-0.409c-5.162-28.047-14.29-54.661-26.86-79.023l0.324-0.327c-2.088-4.34-3.275-9.253-3.275-14.453 0-18.138 16.829-19.775 34.188-19.775l210.576-0.247c0 0 12.938-0.408 12.98-0.408v-0.083c10.688 0.573 21.331-4.749 27.435-14.944 4.831-8.188 5.651-17.811 3.068-26.327l0.246-0.082zM325.765 39.655c0.288-0.041 0.372-0.041 0.25 0 0.246 0.041 0.325 0.082-0.25 0.082-0.57 0-0.49-0.041-0.245-0.082-0.080-0.041 0-0.041 0.245 0z" />
<glyph unicode="&#xe906;" glyph-name="loading" d="M923.852 621.993c-20.013 47.314-47.718 90.324-82.449 128.128 6.876 13.544 10.754 28.866 10.754 45.096 0 55.1-44.667 99.767-99.767 99.767-29.052 0-55.198-12.421-73.431-32.237-53.058 21.39-109.184 32.237-166.959 32.237-60.334 0-118.873-11.821-173.989-35.134-53.232-22.514-101.031-54.742-142.074-95.785-41.046-41.044-73.273-88.844-95.786-142.074-23.314-55.118-35.137-113.658-35.137-173.993 0-60.333 11.823-118.873 35.134-173.99 22.514-53.23 54.742-101.030 95.786-142.074 41.042-41.044 88.841-73.271 142.074-95.786 55.116-23.312 113.656-35.134 173.99-35.134s118.873 11.822 173.993 35.134c53.229 22.515 101.030 54.743 142.073 95.786 41.046 41.044 73.273 88.843 95.786 142.074 23.31 55.116 35.134 113.657 35.134 173.99 0.003 60.335-11.821 118.873-35.131 173.994zM887.892 289.217c-20.546-48.575-49.961-92.204-87.43-129.676-37.473-37.47-81.1-66.888-129.68-87.432-50.28-21.263-103.703-32.048-158.783-32.048-55.077 0-108.5 10.783-158.785 32.048-48.575 20.546-92.204 49.962-129.676 87.432-37.472 37.472-66.888 81.101-87.43 129.676-21.267 50.28-32.051 103.704-32.051 158.784s10.784 108.503 32.051 158.783c20.542 48.575 49.959 92.206 87.43 129.676s81.101 66.887 129.676 87.433c50.285 21.266 103.708 32.050 158.785 32.050 50.6 0 99.798-9.107 146.447-27.075-3.768-10.514-5.825-21.842-5.825-33.653 0-55.1 44.667-99.767 99.767-99.767 24.574 0 47.066 8.889 64.453 23.621 29.737-33.372 53.604-71.038 71.050-112.285 21.266-50.28 32.050-103.703 32.050-158.783s-10.783-108.504-32.050-158.784z" />
<glyph unicode="&#xe907;" glyph-name="message" d="M128-32c-12.8 0-25.6 6.4-25.6 19.2-6.4 12.8 0 32 12.8 44.8l102.4 51.2c57.6 32 128 38.4 192 25.6 38.4-6.4 70.4-12.8 108.8-12.8 230.4 0 416 160 416 352s-192 352-422.4 352-416-160-416-352c0-76.8 25.6-147.2 83.2-211.2 12.8-12.8 12.8-32 0-44.8s-32-12.8-44.8 0c-70.4 76.8-102.4 166.4-102.4 256 0 230.4 217.6 416 480 416s480-185.6 480-416-217.6-416-480-416c-44.8 0-83.2 6.4-121.6 12.8-44.8 12.8-96 0-147.2-19.2l-102.4-51.2c0-6.4-6.4-6.4-12.8-6.4zM256 448c0-35.346 28.654-64 64-64s64 28.654 64 64v0c0 35.346-28.654 64-64 64s-64-28.654-64-64v0zM448 448c0-35.346 28.654-64 64-64s64 28.654 64 64v0c0 35.346-28.654 64-64 64s-64-28.654-64-64v0zM640 448c0-35.346 28.654-64 64-64s64 28.654 64 64v0c0 35.346-28.654 64-64 64s-64-28.654-64-64v0z" />
<glyph unicode="&#xe908;" glyph-name="password" d="M308.169 570.648c-3.038 48.731 0.064 104.661 13.888 156.979 26.56 100.521 84.721 157.9 187.606 157.9 102.471 0 158.595-57.747 182.165-159.36 11.753-50.67 13.629-105.151 9.711-154.22-0.647-8.103-1.28-13.8-1.67-16.629l55.33-7.636c0.532 3.851 1.282 10.606 2.017 19.819 4.336 54.301 2.276 114.149-10.978 171.287-28.904 124.608-104.698 202.594-236.575 202.594-131.463 0-209.148-76.641-241.607-199.486-15.6-59.041-19.011-120.537-15.633-174.722 0.412-6.616 0.835-11.426 1.138-14.172l55.517 6.133c-0.208 1.887-0.554 5.814-0.909 11.514zM512 140.8c79.69 0 144.291 64.601 144.291 144.291s-64.601 144.291-144.291 144.291c-79.69 0-144.291-64.601-144.291-144.291s64.601-144.291 144.291-144.291v0zM512 196.655c-48.842 0-88.436 39.594-88.436 88.436s39.594 88.436 88.436 88.436c48.842 0 88.436-39.594 88.436-88.436s-39.594-88.436-88.436-88.436v0zM867.273 569.018h-727.637c-15.424 0-27.927-12.503-27.927-27.927v-539.124c0-15.424 12.503-27.927 27.927-27.927h726.989c15.424 0 27.927 12.503 27.927 27.927v419.454c0 15.424-12.503 27.927-27.927 27.927s-27.927-12.503-27.927-27.927v-419.454l27.927 27.927h-726.989l27.927-27.927v539.124l-27.927-27.927h727.637c15.424 0 27.927 12.503 27.927 27.927s-12.503 27.927-27.927 27.927v0z" />
<glyph unicode="&#xe909;" glyph-name="pencil" d="M361.090 187.108l-152.955 150.443-96.21-256.58 249.165 106.136zM852.066 668.235l-157.901 162.779-457.691-451.536 164.105-170.194 451.486 458.95zM982.128 792.608c29.701 31.802-15.931 82.452-15.931 82.452s-25.869 34.169-73.948 69.324c-48.131 35.135-85.157 0-85.157 0l-81.392-81.41 165.314-164.704c0 0 69.693 70.291 91.12 94.338h-0.006zM31.828 17.248h919.595v-81.248h-919.595v81.248z" />
<glyph unicode="&#xe90a;" glyph-name="phone" d="M826.090 98.054c0-53.442-43.325-96.765-96.765-96.765h-434.654c-53.439 0-96.762 43.323-96.762 96.765v699.893c0 53.439 43.323 96.763 96.762 96.763h434.655c53.44 0 96.765-43.324 96.765-96.763v-699.893h-0.001zM770.25 797.947c0 22.603-18.321 40.925-40.924 40.925h-434.655c-22.602 0-40.924-18.322-40.924-40.925v-699.893c0-22.603 18.322-40.924 40.924-40.924h434.655c22.603 0 40.924 18.321 40.924 40.924v699.893zM797.53 182.767h-572.341c-7.717 0-13.96 6.244-13.96 13.959 0 7.717 6.244 13.961 13.96 13.961h572.341c7.701 0 13.961-6.244 13.961-13.961s-6.259-13.959-13.961-13.959zM797.53 741.155h-572.341c-7.717 0-13.96 6.243-13.96 13.959s6.244 13.961 13.96 13.961h572.341c7.701 0 13.961-6.244 13.961-13.961s-6.259-13.959-13.961-13.959zM546.898 123.437c0-13.495-10.946-24.429-24.429-24.429h-6.979c-13.483 0-24.43 10.935-24.43 24.429v6.981c0 13.495 10.947 24.429 24.43 24.429h6.979c13.483 0 24.429-10.937 24.429-24.429v-6.981zM575.090 493.128c-1.527 0-3.094 0.245-4.623 0.79-7.278 2.549-11.097 10.524-8.548 17.803l3.79 10.783c2.562 7.266 10.497 11.138 17.801 8.534 7.268-2.549 11.099-10.524 8.534-17.803l-3.788-10.783c-2.017-5.739-7.402-9.324-13.167-9.324zM521.869 341.557c-1.527 0-3.094 0.241-4.623 0.788-7.28 2.538-11.097 10.525-8.548 17.776l39.589 112.749c2.549 7.279 10.51 11.151 17.805 8.548 7.265-2.549 11.097-10.525 8.533-17.79l-39.589-112.748c-2.016-5.754-7.401-9.322-13.167-9.322zM465.295 446.825c-1.527 0-3.096 0.245-4.623 0.79-7.279 2.536-11.097 10.524-8.548 17.782l57.882 164.883c2.537 7.293 10.51 11.138 17.791 8.548 7.278-2.549 11.098-10.525 8.549-17.79l-57.882-164.89c-2.005-5.751-7.403-9.322-13.169-9.322zM438.112 369.477c-1.527 0-3.093 0.241-4.621 0.788-7.28 2.538-11.097 10.523-8.549 17.803l8.52 24.211c2.549 7.279 10.497 11.122 17.79 8.534 7.279-2.537 11.098-10.525 8.549-17.803l-8.52-24.211c-2.018-5.755-7.401-9.322-13.169-9.322z" />
<glyph unicode="&#xe90b;" glyph-name="radio" d="M512 960c-281.6 0-512-230.4-512-512s230.4-512 512-512 512 230.4 512 512-230.4 512-512 512zM512 38.4c-225.28 0-409.6 184.32-409.6 409.6s184.32 409.6 409.6 409.6 409.6-184.32 409.6-409.6-184.32-409.6-409.6-409.6z" />
<glyph unicode="&#xe90c;" glyph-name="radio-h" d="M512 960c-282.784 0-512-229.216-512-512s229.216-512 512-512 512 229.216 512 512-229.216 512-512 512zM512 64c-212.064 0-384 171.936-384 384s171.936 384 384 384c212.064 0 384-171.936 384-384s-171.936-384-384-384zM320 448c0 106.048 85.952 192 192 192s192-85.952 192-192c0-106.048-85.952-192-192-192s-192 85.952-192 192z" />
<glyph unicode="&#xe90d;" glyph-name="save" d="M1018.872 563.521c-11.156 31.64-39.253 54.413-73.336 59.43l-240.405 35.227-104.404 213.517c-15.094 30.914-47.703 50.893-83.083 50.893-35.293 0-67.857-19.979-82.995-50.893l-104.448-213.539-240.383-35.271c-34.105-4.907-62.225-27.658-73.38-59.474-11.134-32.124-2.838-67.021 21.629-91.071l176.442-173.604-40.926-240.559c-5.743-33.533 9.175-67.923 38.109-87.66 28.296-19.033 66.229-21.123 96.703-5.105l209.293 111.093 209.425-111.115c13.554-7.151 28.758-10.936 44.006-10.936 18.791 0 36.987 5.545 52.719 16.128 28.802 19.649 43.698 54.017 37.955 87.55l-40.904 240.581 176.464 173.604c24.423 24.093 32.718 58.99 21.519 91.203zM966.439 503.717l-192.834-189.732 44.754-263.244c2.904-16.898-4.533-33.665-19.253-43.72-15.072-10.121-35.403-11.2-51.443-2.75l-229.998 122.051-229.844-122.007c-16.216-8.537-36.569-7.393-51.443 2.64-14.874 10.143-22.311 26.932-19.407 43.83l44.776 263.2-192.812 189.732c-12.234 12.014-16.414 29.374-10.936 45.194 5.699 16.194 20.287 27.856 38.175 30.43l263.398 38.659 114.636 234.376c7.789 15.93 24.863 26.228 43.478 26.228 18.681 0 35.755-10.275 43.544-26.206l114.614-234.376 263.332-38.571c17.866-2.64 32.52-14.346 38.197-30.452 5.479-15.908 1.298-33.247-10.936-45.282zM514.739 570.54c-45.062 0-81.367-13.752-107.859-40.838-44.226-45.216-43.28-110.895-43.214-113.69 0.264-11.97 10.055-21.475 21.981-21.475 0.132 0 0.286 0 0.418 0 12.124 0.22 21.761 10.253 21.585 22.377 0 0.506-0.396 50.475 30.892 82.225 17.888 18.174 43.544 27.372 76.174 27.372 12.146 0 22.003 9.857 22.003 22.003s-9.835 22.025-21.981 22.025z" />
<glyph unicode="&#xe90e;" glyph-name="send" d="M972.8 870.4c-19.2 6.4-51.2-6.4-51.2-6.4l-870.4-428.8c0 0-19.2-12.8-19.2-25.6 0-19.2 19.2-32 19.2-32l313.6-96 19.2 57.6-236.8 70.4 723.2 358.4-422.4-512v-256h64v236.8l313.6-108.8c0 0 19.2-6.4 32 0v0c12.8 6.4 19.2 25.6 19.2 25.6s121.6 665.6 121.6 672c0 19.2-6.4 38.4-25.6 44.8zM819.2 198.4l-262.4 96 358.4 435.2-96-531.2z" />
<glyph unicode="&#xe90f;" glyph-name="success" d="M517.116 890.621c-243.234 0-440.42-197.186-440.42-440.42s197.186-440.422 440.42-440.422 440.422 197.187 440.422 440.421c0 243.235-197.29 440.421-440.422 440.421zM517.116 61.659c-214.685 0-388.643 173.958-388.643 388.643 0 214.583 173.958 388.541 388.643 388.541s388.644-173.958 388.644-388.643c-0.103-214.583-174.061-388.54-388.644-388.54zM707.754 601.134l-236.583-236.684-130.264 130.263c-11.87 11.87-31.108 11.87-42.978 0s-11.87-31.108 0-42.978l151.753-151.753c11.87-11.87 31.108-11.87 42.978 0l258.072 258.174c11.87 11.87 11.87 31.108 0 42.978s-31.108 11.87-42.978 0z" />
<glyph unicode="&#xe910;" glyph-name="upload" d="M798.912 161.28c124.395 0 225.088 100.827 225.088 225.28 0 107.637-76.045 199.611-180.288 220.77l-4.074-20.071 20.476-0.419c0.031 1.505 0.046 3.011 0.046 4.519 0 148.171-147.586 266.24-327.68 266.24s-327.68-118.069-327.68-266.24l20.472 20.48c-124.511-0.048-225.272-100.85-225.272-225.28 0-124.434 100.821-225.28 225.212-225.28h122.948c11.311 0 20.48 9.169 20.48 20.48s-9.169 20.48-20.48 20.48h-122.948c-101.767 0-184.252 82.505-184.252 184.32s82.433 184.281 184.328 184.32l20.472 0.008v20.472c0 123.288 127.49 225.28 286.72 225.28s286.72-101.992 286.72-225.28c0-1.229-0.013-2.456-0.038-3.682l-0.349-17.089 16.751-3.4c85.245-17.303 147.476-92.569 147.476-180.629 0-101.844-82.367-184.32-184.128-184.32h-119.192c-11.311 0-20.48-9.169-20.48-20.48s9.169-20.48 20.48-20.48h119.192zM532.48 459.997v-401.054c0-11.346-9.090-20.543-20.48-20.543-11.311 0-20.48 8.989-20.48 20.543v401.054l-108.398-108.398c-7.998-7.998-20.965-7.998-28.963 0s-7.998 20.965 0 28.963l143.36 143.36c7.998 7.998 20.965 7.998 28.963 0l143.36-143.36c7.998-7.998 7.998-20.965 0-28.963s-20.965-7.998-28.963 0l-108.398 108.398zM527.879 746.952c-11.268-0.986-19.603-10.919-18.617-22.187s10.919-19.603 22.187-18.617c50.197 4.392 97.958-12.696 129.497-44.811 7.925-8.070 20.892-8.187 28.962-0.262s8.187 20.892 0.262 28.962c-40.221 40.956-100.050 62.36-162.291 56.915zM734.453 639.223c-6.203 9.458-18.899 12.096-28.357 5.893s-12.096-18.899-5.893-28.357c7.2-10.978 12.488-22.999 15.686-35.827 2.736-10.975 13.851-17.653 24.826-14.917s17.653 13.851 14.917 24.826c-4.318 17.319-11.471 33.58-21.179 48.382z" />
<glyph unicode="&#xe911;" glyph-name="warning" d="M948.86 160.205l-336.518 673.032c-19.008 38.012-57.838 62.003-100.343 62.003-42.502 0-81.335-23.99-100.34-62.003l-336.516-673.032c-17.361-34.782-15.497-76.078 4.93-109.16 20.429-33.023 56.52-53.183 95.411-53.183h673.032c38.893 0 74.984 20.16 95.416 53.183 20.423 33.082 22.289 74.378 4.929 109.16zM896.224 80.572c-10.135-16.436-28.427-26.624-47.71-26.624h-673.032c-19.274 0-37.57 10.188-47.707 26.565-10.298 16.708-11.226 37.078-2.459 54.617l336.513 673.023c9.529 19.111 28.753 31.001 50.169 31.001s40.643-11.89 50.172-31.001l336.513-672.975c8.765-17.587 7.834-37.956-2.46-54.606zM511.998 670.893c-30.948 0-56.083-25.135-56.083-56.080v-280.438c0-30.943 25.134-56.080 56.083-56.080s56.088 25.138 56.088 56.080v280.438c0 30.945-25.141 56.080-56.088 56.080zM511.998 222.209c-30.948 0-56.083-25.138-56.083-56.086 0-30.946 25.134-56.086 56.083-56.086s56.088 25.141 56.088 56.086c0 30.949-25.141 56.086-56.088 56.086z" />
<glyph unicode="&#xe912;" glyph-name="publish" horiz-adv-x="1025" d="M840.449 57.251h-721.53v718.629h262.811v55.261h-279.383c-21.334 0-38.69-17.526-38.69-39.068v-751.018c0-21.543 17.356-39.070 38.69-39.070h754.678c21.333 0 38.688 17.527 38.688 39.070v284.503h-55.261l-0.003-268.307zM564.294 256.129l-243.755-0.006 0.446 244.786 383.231 383.941c6.744 6.732 15.677 10.814 25.162 11.504 11.522 0.837 22.81-3.369 30.97-11.54l187.837-188.177c7.489-7.503 11.607-17.473 11.595-28.071-0.009-10.602-4.146-20.565-11.65-28.054l-383.836-384.382zM371.799 307.292l171.357 0.003 360.694 361.325-171.598 171.908-360.137-360.868-0.315-172.369z" />
<glyph unicode="&#xe913;" glyph-name="read" d="M1007.912 492.878c-130.681 189.954-279.144 287.894-441.438 290.999h-6.774c-134.915 0-238.783-75.925-330.796-167.656-0.282 0-0.564 0-0.847-0.282-20.886-7.338-61.248-14.959-80.723-4.516-5.645 3.105-9.032 7.903-11.008 14.959-3.951 13.266-17.782 20.886-31.047 16.935-12.419-3.669-19.757-15.806-17.499-28.507 5.080-20.886 17.499-37.257 35.846-47.136 14.677-7.903 31.894-10.725 48.829-11.008l-4.516-4.798c-56.168-61.248-92.295-28.789-106.126-16.935-15.806 13.266-39.515 11.572-52.781-4.234-12.983-15.241-11.854-37.821 2.822-51.652 64.917-57.861 145.923-49.394 211.405 22.298 99.916 109.513 201.244 207.735 336.441 207.735h5.363c136.609-2.54 264.75-89.473 380.472-257.693 5.363-8.467 3.951-11.854 0.282-17.499-99.634-159.471-231.162-244.992-379.343-247.533-125.601 1.976-252.331 60.966-338.417 158.060-13.83 15.241-37.539 16.37-53.063 2.54-15.241-13.548-16.37-36.975-3.105-52.216 99.916-112.335 246.968-180.639 394.584-182.897 122.778 1.976 299.466 52.498 442.284 281.685 20.604 30.765 20.604 66.893-0.847 99.352zM747.96 448c0 98.223-81.006 178.099-180.922 178.099-99.634 0-180.922-79.877-180.922-178.099s81.006-178.099 180.922-178.099c99.916-0.282 180.922 79.877 180.922 178.099zM436.357 448c0 70.845 58.708 128.423 130.964 128.423s130.964-57.579 130.964-128.423-58.708-128.423-130.964-128.423c-72.256 0-130.964 57.579-130.964 128.423z" />
</font>
</defs>
</svg>
